{
 "cells": [
  {
   "cell_type": "code",
   "execution_count": 32,
   "metadata": {
    "collapsed": true
   },
   "outputs": [],
   "source": [
    "from midi.utils import midiread\n",
    "import mido\n",
    "import numpy"
   ]
  },
  {
   "cell_type": "code",
   "execution_count": 33,
   "metadata": {
    "collapsed": false
   },
   "outputs": [],
   "source": [
    "mid = midiread('data/Nottingham/train/ashover_simple_chords_14.mid')\n",
    "mid2 = mido.MidiFile('data/Nottingham/train/ashover_simple_chords_14.mid')"
   ]
  },
  {
   "cell_type": "code",
   "execution_count": 11,
   "metadata": {
    "collapsed": false
   },
   "outputs": [
    {
     "data": {
      "text/plain": [
       "[[76, 0.0, 0.24895833333333334],\n",
       " [73, 0.25, 0.49895833333333334],\n",
       " [69, 0.5, 0.7489583333333333],\n",
       " [74, 0.75, 0.9989583333333333],\n",
       " [76, 1.0, 1.2489583333333334],\n",
       " [78, 1.25, 1.4989583333333334],\n",
       " [76, 1.5, 1.7489583333333334],\n",
       " [73, 1.75, 1.9989583333333334],\n",
       " [69, 2.0, 2.2489583333333334],\n",
       " [74, 2.25, 2.7489583333333334],\n",
       " [78, 2.75, 2.9989583333333334],\n",
       " [76, 3.0, 3.2489583333333334],\n",
       " [73, 3.25, 3.4989583333333334],\n",
       " [69, 3.5, 3.7489583333333334],\n",
       " [76, 3.75, 3.9989583333333334],\n",
       " [73, 4.0, 4.248958333333333],\n",
       " [69, 4.25, 4.498958333333333],\n",
       " [71, 4.5, 4.748958333333333],\n",
       " [73, 4.75, 4.998958333333333],\n",
       " [71, 5.0, 5.248958333333333],\n",
       " [74, 5.25, 5.748958333333333],\n",
       " [78, 5.75, 5.998958333333333],\n",
       " [76, 6.0, 6.248958333333333],\n",
       " [73, 6.25, 6.498958333333333],\n",
       " [69, 6.5, 6.748958333333333],\n",
       " [74, 6.75, 6.998958333333333],\n",
       " [76, 7.0, 7.248958333333333],\n",
       " [78, 7.25, 7.498958333333333],\n",
       " [76, 7.5, 7.748958333333333],\n",
       " [73, 7.75, 7.998958333333333],\n",
       " [69, 8.0, 8.248958333333333],\n",
       " [74, 8.25, 8.748958333333333],\n",
       " [78, 8.75, 8.998958333333333],\n",
       " [78, 9.0, 9.248958333333333],\n",
       " [81, 9.25, 9.498958333333333],\n",
       " [78, 9.5, 9.748958333333333],\n",
       " [76, 9.75, 9.998958333333333],\n",
       " [74, 10.0, 10.248958333333333],\n",
       " [73, 10.25, 10.498958333333333],\n",
       " [71, 10.5, 10.748958333333333],\n",
       " [73, 10.75, 10.998958333333333],\n",
       " [71, 11.0, 11.248958333333333],\n",
       " [74, 11.25, 11.748958333333333],\n",
       " [78, 11.75, 11.998958333333333],\n",
       " [76, 12.0, 12.248958333333333],\n",
       " [73, 12.25, 12.498958333333333],\n",
       " [69, 12.5, 12.748958333333333],\n",
       " [74, 12.75, 12.998958333333333],\n",
       " [76, 13.0, 13.248958333333333],\n",
       " [78, 13.25, 13.498958333333333],\n",
       " [76, 13.5, 13.748958333333333],\n",
       " [73, 13.75, 13.998958333333333],\n",
       " [69, 14.0, 14.248958333333333],\n",
       " [74, 14.25, 14.748958333333333],\n",
       " [78, 14.75, 14.998958333333333],\n",
       " [76, 15.0, 15.248958333333333],\n",
       " [73, 15.25, 15.498958333333333],\n",
       " [69, 15.5, 15.748958333333333],\n",
       " [76, 15.75, 15.998958333333333],\n",
       " [73, 16.0, 16.248958333333334],\n",
       " [69, 16.25, 16.498958333333334],\n",
       " [71, 16.5, 16.748958333333334],\n",
       " [73, 16.75, 16.998958333333334],\n",
       " [71, 17.0, 17.248958333333334],\n",
       " [74, 17.25, 17.748958333333334],\n",
       " [78, 17.75, 17.998958333333334],\n",
       " [76, 18.0, 18.248958333333334],\n",
       " [73, 18.25, 18.498958333333334],\n",
       " [69, 18.5, 18.748958333333334],\n",
       " [74, 18.75, 18.998958333333334],\n",
       " [76, 19.0, 19.248958333333334],\n",
       " [78, 19.25, 19.498958333333334],\n",
       " [76, 19.5, 19.748958333333334],\n",
       " [73, 19.75, 19.998958333333334],\n",
       " [69, 20.0, 20.248958333333334],\n",
       " [74, 20.25, 20.748958333333334],\n",
       " [78, 20.75, 20.998958333333334],\n",
       " [78, 21.0, 21.248958333333334],\n",
       " [81, 21.25, 21.498958333333334],\n",
       " [78, 21.5, 21.748958333333334],\n",
       " [76, 21.75, 21.998958333333334],\n",
       " [74, 22.0, 22.248958333333334],\n",
       " [73, 22.25, 22.498958333333334],\n",
       " [71, 22.5, 22.748958333333334],\n",
       " [73, 22.75, 22.998958333333334],\n",
       " [71, 23.0, 23.248958333333334],\n",
       " [74, 23.25, 23.748958333333334],\n",
       " [78, 23.75, 23.998958333333334],\n",
       " [76, 24.0, 24.248958333333334],\n",
       " [73, 24.25, 24.498958333333334],\n",
       " [69, 24.5, 24.748958333333334],\n",
       " [81, 24.75, 24.998958333333334],\n",
       " [73, 25.0, 25.248958333333334],\n",
       " [69, 25.25, 25.498958333333334],\n",
       " [76, 25.5, 25.748958333333334],\n",
       " [73, 25.75, 25.998958333333334],\n",
       " [69, 26.0, 26.248958333333334],\n",
       " [74, 26.25, 26.748958333333334],\n",
       " [78, 26.75, 26.998958333333334],\n",
       " [76, 27.0, 27.248958333333334],\n",
       " [73, 27.25, 27.498958333333334],\n",
       " [69, 27.5, 27.748958333333334],\n",
       " [81, 27.75, 27.998958333333334],\n",
       " [73, 28.0, 28.248958333333334],\n",
       " [69, 28.25, 28.498958333333334],\n",
       " [71, 28.5, 28.748958333333334],\n",
       " [73, 28.75, 28.998958333333334],\n",
       " [71, 29.0, 29.248958333333334],\n",
       " [74, 29.25, 29.748958333333334],\n",
       " [78, 29.75, 29.998958333333334],\n",
       " [76, 30.0, 30.248958333333334],\n",
       " [73, 30.25, 30.498958333333334],\n",
       " [69, 30.5, 30.748958333333334],\n",
       " [81, 30.75, 30.998958333333334],\n",
       " [73, 31.0, 31.248958333333334],\n",
       " [69, 31.25, 31.498958333333334],\n",
       " [76, 31.5, 31.748958333333334],\n",
       " [73, 31.75, 31.998958333333334],\n",
       " [69, 32.0, 32.248958333333334],\n",
       " [74, 32.25, 32.748958333333334],\n",
       " [78, 32.75, 32.998958333333334],\n",
       " [78, 33.0, 33.248958333333334],\n",
       " [81, 33.25, 33.498958333333334],\n",
       " [78, 33.5, 33.748958333333334],\n",
       " [76, 33.75, 33.998958333333334],\n",
       " [74, 34.0, 34.248958333333334],\n",
       " [73, 34.25, 34.498958333333334],\n",
       " [71, 34.5, 34.748958333333334],\n",
       " [73, 34.75, 34.998958333333334],\n",
       " [71, 35.0, 35.248958333333334],\n",
       " [74, 35.25, 35.748958333333334],\n",
       " [78, 35.75, 35.998958333333334],\n",
       " [57, 0.0, 1.4989583333333334],\n",
       " [61, 0.0, 1.4989583333333334],\n",
       " [64, 0.0, 1.4989583333333334],\n",
       " [57, 1.5, 2.9989583333333334],\n",
       " [61, 1.5, 2.9989583333333334],\n",
       " [64, 1.5, 2.9989583333333334],\n",
       " [57, 3.0, 4.498958333333333],\n",
       " [61, 3.0, 4.498958333333333],\n",
       " [64, 3.0, 4.498958333333333],\n",
       " [59, 4.5, 5.998958333333333],\n",
       " [62, 4.5, 5.998958333333333],\n",
       " [66, 4.5, 5.998958333333333],\n",
       " [57, 6.0, 7.498958333333333],\n",
       " [61, 6.0, 7.498958333333333],\n",
       " [64, 6.0, 7.498958333333333],\n",
       " [57, 7.5, 8.998958333333333],\n",
       " [61, 7.5, 8.998958333333333],\n",
       " [64, 7.5, 8.998958333333333],\n",
       " [50, 9.0, 10.498958333333333],\n",
       " [54, 9.0, 10.498958333333333],\n",
       " [57, 9.0, 10.498958333333333],\n",
       " [59, 10.5, 11.998958333333333],\n",
       " [62, 10.5, 11.998958333333333],\n",
       " [66, 10.5, 11.998958333333333],\n",
       " [57, 12.0, 13.498958333333333],\n",
       " [61, 12.0, 13.498958333333333],\n",
       " [64, 12.0, 13.498958333333333],\n",
       " [57, 13.5, 14.998958333333333],\n",
       " [61, 13.5, 14.998958333333333],\n",
       " [64, 13.5, 14.998958333333333],\n",
       " [57, 15.0, 16.498958333333334],\n",
       " [61, 15.0, 16.498958333333334],\n",
       " [64, 15.0, 16.498958333333334],\n",
       " [59, 16.5, 17.998958333333334],\n",
       " [62, 16.5, 17.998958333333334],\n",
       " [66, 16.5, 17.998958333333334],\n",
       " [57, 18.0, 19.498958333333334],\n",
       " [61, 18.0, 19.498958333333334],\n",
       " [64, 18.0, 19.498958333333334],\n",
       " [57, 19.5, 20.998958333333334],\n",
       " [61, 19.5, 20.998958333333334],\n",
       " [64, 19.5, 20.998958333333334],\n",
       " [50, 21.0, 22.498958333333334],\n",
       " [54, 21.0, 22.498958333333334],\n",
       " [57, 21.0, 22.498958333333334],\n",
       " [59, 22.5, 23.998958333333334],\n",
       " [62, 22.5, 23.998958333333334],\n",
       " [66, 22.5, 23.998958333333334],\n",
       " [57, 24.0, 25.498958333333334],\n",
       " [61, 24.0, 25.498958333333334],\n",
       " [64, 24.0, 25.498958333333334],\n",
       " [57, 25.5, 26.998958333333334],\n",
       " [61, 25.5, 26.998958333333334],\n",
       " [64, 25.5, 26.998958333333334],\n",
       " [57, 27.0, 28.498958333333334],\n",
       " [61, 27.0, 28.498958333333334],\n",
       " [64, 27.0, 28.498958333333334],\n",
       " [59, 28.5, 29.998958333333334],\n",
       " [62, 28.5, 29.998958333333334],\n",
       " [66, 28.5, 29.998958333333334],\n",
       " [57, 30.0, 31.498958333333334],\n",
       " [61, 30.0, 31.498958333333334],\n",
       " [64, 30.0, 31.498958333333334],\n",
       " [57, 31.5, 32.998958333333334],\n",
       " [61, 31.5, 32.998958333333334],\n",
       " [64, 31.5, 32.998958333333334],\n",
       " [50, 33.0, 34.498958333333334],\n",
       " [54, 33.0, 34.498958333333334],\n",
       " [57, 33.0, 34.498958333333334],\n",
       " [59, 34.5, 35.998958333333334],\n",
       " [62, 34.5, 35.998958333333334],\n",
       " [66, 34.5, 35.998958333333334]]"
      ]
     },
     "execution_count": 11,
     "metadata": {},
     "output_type": "execute_result"
    }
   ],
   "source": [
    "mid.notes"
   ]
  },
  {
   "cell_type": "code",
   "execution_count": 35,
   "metadata": {
    "collapsed": false
   },
   "outputs": [
    {
     "name": "stdout",
     "output_type": "stream",
     "text": [
      "<meta message set_tempo tempo=500000 time=0>\n",
      "<meta message key_signature key='A' time=0>\n",
      "<meta message time_signature numerator=6 denominator=8 clocks_per_click=36 notated_32nd_notes_per_beat=8 time=0>\n",
      "<meta message track_name name=u\"Duchess of Hamilton's Rant\" time=0>\n",
      "<meta message track_name name=u\"Duchess of Hamilton's Rant\" time=0>\n",
      "<meta message text text=u' Nottingham Music Database' time=0>\n",
      "<meta message text text=u'S:Mick Peat' time=0>\n",
      "note_on channel=0 note=76 velocity=105 time=0\n",
      "<meta message text text=u' Nottingham Music Database' time=0>\n",
      "<meta message text text=u'S:Mick Peat' time=0>\n",
      "note_on channel=2 note=57 velocity=75 time=0\n",
      "note_on channel=2 note=61 velocity=75 time=0\n",
      "note_on channel=2 note=64 velocity=75 time=0\n",
      "note_off channel=0 note=76 velocity=0 time=0.248958333333\n",
      "note_on channel=0 note=73 velocity=80 time=0.00104166666667\n",
      "note_off channel=0 note=73 velocity=0 time=0.248958333333\n",
      "note_on channel=0 note=69 velocity=80 time=0.00104166666667\n",
      "note_off channel=0 note=69 velocity=0 time=0.248958333333\n",
      "note_on channel=0 note=74 velocity=95 time=0.00104166666667\n",
      "note_off channel=0 note=74 velocity=0 time=0.248958333333\n",
      "note_on channel=0 note=76 velocity=80 time=0.00104166666667\n",
      "note_off channel=0 note=76 velocity=0 time=0.248958333333\n",
      "note_on channel=0 note=78 velocity=80 time=0.00104166666667\n",
      "note_off channel=0 note=78 velocity=0 time=0.248958333333\n",
      "note_off channel=2 note=57 velocity=0 time=0\n",
      "note_off channel=2 note=61 velocity=0 time=0\n",
      "note_off channel=2 note=64 velocity=0 time=0\n",
      "note_on channel=0 note=76 velocity=105 time=0.00104166666667\n",
      "note_on channel=2 note=57 velocity=75 time=0\n",
      "note_on channel=2 note=61 velocity=75 time=0\n",
      "note_on channel=2 note=64 velocity=75 time=0\n",
      "note_off channel=0 note=76 velocity=0 time=0.248958333333\n",
      "note_on channel=0 note=73 velocity=80 time=0.00104166666667\n",
      "note_off channel=0 note=73 velocity=0 time=0.248958333333\n",
      "note_on channel=0 note=69 velocity=80 time=0.00104166666667\n",
      "note_off channel=0 note=69 velocity=0 time=0.248958333333\n",
      "note_on channel=0 note=74 velocity=95 time=0.00104166666667\n",
      "note_off channel=0 note=74 velocity=0 time=0.498958333333\n",
      "note_on channel=0 note=78 velocity=80 time=0.00104166666667\n",
      "note_off channel=0 note=78 velocity=0 time=0.248958333333\n",
      "note_off channel=2 note=57 velocity=0 time=0\n",
      "note_off channel=2 note=61 velocity=0 time=0\n",
      "note_off channel=2 note=64 velocity=0 time=0\n",
      "note_on channel=0 note=76 velocity=105 time=0.00104166666667\n",
      "note_on channel=2 note=57 velocity=75 time=0\n",
      "note_on channel=2 note=61 velocity=75 time=0\n",
      "note_on channel=2 note=64 velocity=75 time=0\n",
      "note_off channel=0 note=76 velocity=0 time=0.248958333333\n",
      "note_on channel=0 note=73 velocity=80 time=0.00104166666667\n",
      "note_off channel=0 note=73 velocity=0 time=0.248958333333\n",
      "note_on channel=0 note=69 velocity=80 time=0.00104166666667\n",
      "note_off channel=0 note=69 velocity=0 time=0.248958333333\n",
      "note_on channel=0 note=76 velocity=95 time=0.00104166666667\n",
      "note_off channel=0 note=76 velocity=0 time=0.248958333333\n",
      "note_on channel=0 note=73 velocity=80 time=0.00104166666667\n",
      "note_off channel=0 note=73 velocity=0 time=0.248958333333\n",
      "note_on channel=0 note=69 velocity=80 time=0.00104166666667\n",
      "note_off channel=0 note=69 velocity=0 time=0.248958333333\n",
      "note_off channel=2 note=57 velocity=0 time=0\n",
      "note_off channel=2 note=61 velocity=0 time=0\n",
      "note_off channel=2 note=64 velocity=0 time=0\n",
      "note_on channel=0 note=71 velocity=105 time=0.00104166666667\n",
      "note_on channel=2 note=59 velocity=75 time=0\n",
      "note_on channel=2 note=62 velocity=75 time=0\n",
      "note_on channel=2 note=66 velocity=75 time=0\n",
      "note_off channel=0 note=71 velocity=0 time=0.248958333333\n",
      "note_on channel=0 note=73 velocity=80 time=0.00104166666667\n",
      "note_off channel=0 note=73 velocity=0 time=0.248958333333\n",
      "note_on channel=0 note=71 velocity=80 time=0.00104166666667\n",
      "note_off channel=0 note=71 velocity=0 time=0.248958333333\n",
      "note_on channel=0 note=74 velocity=95 time=0.00104166666667\n",
      "note_off channel=0 note=74 velocity=0 time=0.498958333333\n",
      "note_on channel=0 note=78 velocity=80 time=0.00104166666667\n",
      "note_off channel=0 note=78 velocity=0 time=0.248958333333\n",
      "note_off channel=2 note=59 velocity=0 time=0\n",
      "note_off channel=2 note=62 velocity=0 time=0\n",
      "note_off channel=2 note=66 velocity=0 time=0\n",
      "note_on channel=0 note=76 velocity=105 time=0.00104166666667\n",
      "note_on channel=2 note=57 velocity=75 time=0\n",
      "note_on channel=2 note=61 velocity=75 time=0\n",
      "note_on channel=2 note=64 velocity=75 time=0\n",
      "note_off channel=0 note=76 velocity=0 time=0.248958333333\n",
      "note_on channel=0 note=73 velocity=80 time=0.00104166666667\n",
      "note_off channel=0 note=73 velocity=0 time=0.248958333333\n",
      "note_on channel=0 note=69 velocity=80 time=0.00104166666667\n",
      "note_off channel=0 note=69 velocity=0 time=0.248958333333\n",
      "note_on channel=0 note=74 velocity=95 time=0.00104166666667\n",
      "note_off channel=0 note=74 velocity=0 time=0.248958333333\n",
      "note_on channel=0 note=76 velocity=80 time=0.00104166666667\n",
      "note_off channel=0 note=76 velocity=0 time=0.248958333333\n",
      "note_on channel=0 note=78 velocity=80 time=0.00104166666667\n",
      "note_off channel=0 note=78 velocity=0 time=0.248958333333\n",
      "note_off channel=2 note=57 velocity=0 time=0\n",
      "note_off channel=2 note=61 velocity=0 time=0\n",
      "note_off channel=2 note=64 velocity=0 time=0\n",
      "note_on channel=0 note=76 velocity=105 time=0.00104166666667\n",
      "note_on channel=2 note=57 velocity=75 time=0\n",
      "note_on channel=2 note=61 velocity=75 time=0\n",
      "note_on channel=2 note=64 velocity=75 time=0\n",
      "note_off channel=0 note=76 velocity=0 time=0.248958333333\n",
      "note_on channel=0 note=73 velocity=80 time=0.00104166666667\n",
      "note_off channel=0 note=73 velocity=0 time=0.248958333333\n",
      "note_on channel=0 note=69 velocity=80 time=0.00104166666667\n",
      "note_off channel=0 note=69 velocity=0 time=0.248958333333\n",
      "note_on channel=0 note=74 velocity=95 time=0.00104166666667\n",
      "note_off channel=0 note=74 velocity=0 time=0.498958333333\n",
      "note_on channel=0 note=78 velocity=80 time=0.00104166666667\n",
      "note_off channel=0 note=78 velocity=0 time=0.248958333333\n",
      "note_off channel=2 note=57 velocity=0 time=0\n",
      "note_off channel=2 note=61 velocity=0 time=0\n",
      "note_off channel=2 note=64 velocity=0 time=0\n",
      "note_on channel=0 note=78 velocity=105 time=0.00104166666667\n",
      "note_on channel=2 note=50 velocity=75 time=0\n",
      "note_on channel=2 note=54 velocity=75 time=0\n",
      "note_on channel=2 note=57 velocity=75 time=0\n",
      "note_off channel=0 note=78 velocity=0 time=0.248958333333\n",
      "note_on channel=0 note=81 velocity=80 time=0.00104166666667\n",
      "note_off channel=0 note=81 velocity=0 time=0.248958333333\n",
      "note_on channel=0 note=78 velocity=80 time=0.00104166666667\n",
      "note_off channel=0 note=78 velocity=0 time=0.248958333333\n",
      "note_on channel=0 note=76 velocity=95 time=0.00104166666667\n",
      "note_off channel=0 note=76 velocity=0 time=0.248958333333\n",
      "note_on channel=0 note=74 velocity=80 time=0.00104166666667\n",
      "note_off channel=0 note=74 velocity=0 time=0.248958333333\n",
      "note_on channel=0 note=73 velocity=80 time=0.00104166666667\n",
      "note_off channel=0 note=73 velocity=0 time=0.248958333333\n",
      "note_off channel=2 note=50 velocity=0 time=0\n",
      "note_off channel=2 note=54 velocity=0 time=0\n",
      "note_off channel=2 note=57 velocity=0 time=0\n",
      "note_on channel=0 note=71 velocity=105 time=0.00104166666667\n",
      "note_on channel=2 note=59 velocity=75 time=0\n",
      "note_on channel=2 note=62 velocity=75 time=0\n",
      "note_on channel=2 note=66 velocity=75 time=0\n",
      "note_off channel=0 note=71 velocity=0 time=0.248958333333\n",
      "note_on channel=0 note=73 velocity=80 time=0.00104166666667\n",
      "note_off channel=0 note=73 velocity=0 time=0.248958333333\n",
      "note_on channel=0 note=71 velocity=80 time=0.00104166666667\n",
      "note_off channel=0 note=71 velocity=0 time=0.248958333333\n",
      "note_on channel=0 note=74 velocity=95 time=0.00104166666667\n",
      "note_off channel=0 note=74 velocity=0 time=0.498958333333\n",
      "note_on channel=0 note=78 velocity=80 time=0.00104166666667\n",
      "note_off channel=0 note=78 velocity=0 time=0.248958333333\n",
      "note_off channel=2 note=59 velocity=0 time=0\n",
      "note_off channel=2 note=62 velocity=0 time=0\n",
      "note_off channel=2 note=66 velocity=0 time=0\n",
      "note_on channel=0 note=76 velocity=105 time=0.00104166666667\n",
      "note_on channel=2 note=57 velocity=75 time=0\n",
      "note_on channel=2 note=61 velocity=75 time=0\n",
      "note_on channel=2 note=64 velocity=75 time=0\n",
      "note_off channel=0 note=76 velocity=0 time=0.248958333333\n",
      "note_on channel=0 note=73 velocity=80 time=0.00104166666667\n",
      "note_off channel=0 note=73 velocity=0 time=0.248958333333\n",
      "note_on channel=0 note=69 velocity=80 time=0.00104166666667\n",
      "note_off channel=0 note=69 velocity=0 time=0.248958333333\n",
      "note_on channel=0 note=74 velocity=95 time=0.00104166666667\n",
      "note_off channel=0 note=74 velocity=0 time=0.248958333333\n",
      "note_on channel=0 note=76 velocity=80 time=0.00104166666667\n",
      "note_off channel=0 note=76 velocity=0 time=0.248958333333\n",
      "note_on channel=0 note=78 velocity=80 time=0.00104166666667\n",
      "note_off channel=0 note=78 velocity=0 time=0.248958333333\n",
      "note_off channel=2 note=57 velocity=0 time=0\n",
      "note_off channel=2 note=61 velocity=0 time=0\n",
      "note_off channel=2 note=64 velocity=0 time=0\n",
      "note_on channel=0 note=76 velocity=105 time=0.00104166666667\n",
      "note_on channel=2 note=57 velocity=75 time=0\n",
      "note_on channel=2 note=61 velocity=75 time=0\n",
      "note_on channel=2 note=64 velocity=75 time=0\n",
      "note_off channel=0 note=76 velocity=0 time=0.248958333333\n",
      "note_on channel=0 note=73 velocity=80 time=0.00104166666667\n",
      "note_off channel=0 note=73 velocity=0 time=0.248958333333\n",
      "note_on channel=0 note=69 velocity=80 time=0.00104166666667\n",
      "note_off channel=0 note=69 velocity=0 time=0.248958333333\n",
      "note_on channel=0 note=74 velocity=95 time=0.00104166666667\n",
      "note_off channel=0 note=74 velocity=0 time=0.498958333333\n",
      "note_on channel=0 note=78 velocity=80 time=0.00104166666667\n",
      "note_off channel=0 note=78 velocity=0 time=0.248958333333\n",
      "note_off channel=2 note=57 velocity=0 time=0\n",
      "note_off channel=2 note=61 velocity=0 time=0\n",
      "note_off channel=2 note=64 velocity=0 time=0\n",
      "note_on channel=0 note=76 velocity=105 time=0.00104166666667\n",
      "note_on channel=2 note=57 velocity=75 time=0\n",
      "note_on channel=2 note=61 velocity=75 time=0\n",
      "note_on channel=2 note=64 velocity=75 time=0\n",
      "note_off channel=0 note=76 velocity=0 time=0.248958333333\n",
      "note_on channel=0 note=73 velocity=80 time=0.00104166666667\n",
      "note_off channel=0 note=73 velocity=0 time=0.248958333333\n",
      "note_on channel=0 note=69 velocity=80 time=0.00104166666667\n",
      "note_off channel=0 note=69 velocity=0 time=0.248958333333\n",
      "note_on channel=0 note=76 velocity=95 time=0.00104166666667\n",
      "note_off channel=0 note=76 velocity=0 time=0.248958333333\n",
      "note_on channel=0 note=73 velocity=80 time=0.00104166666667\n",
      "note_off channel=0 note=73 velocity=0 time=0.248958333333\n",
      "note_on channel=0 note=69 velocity=80 time=0.00104166666667\n",
      "note_off channel=0 note=69 velocity=0 time=0.248958333333\n",
      "note_off channel=2 note=57 velocity=0 time=0\n",
      "note_off channel=2 note=61 velocity=0 time=0\n",
      "note_off channel=2 note=64 velocity=0 time=0\n",
      "note_on channel=0 note=71 velocity=105 time=0.00104166666667\n",
      "note_on channel=2 note=59 velocity=75 time=0\n",
      "note_on channel=2 note=62 velocity=75 time=0\n",
      "note_on channel=2 note=66 velocity=75 time=0\n",
      "note_off channel=0 note=71 velocity=0 time=0.248958333333\n",
      "note_on channel=0 note=73 velocity=80 time=0.00104166666667\n",
      "note_off channel=0 note=73 velocity=0 time=0.248958333333\n",
      "note_on channel=0 note=71 velocity=80 time=0.00104166666667\n",
      "note_off channel=0 note=71 velocity=0 time=0.248958333333\n",
      "note_on channel=0 note=74 velocity=95 time=0.00104166666667\n",
      "note_off channel=0 note=74 velocity=0 time=0.498958333333\n",
      "note_on channel=0 note=78 velocity=80 time=0.00104166666667\n",
      "note_off channel=0 note=78 velocity=0 time=0.248958333333\n",
      "note_off channel=2 note=59 velocity=0 time=0\n",
      "note_off channel=2 note=62 velocity=0 time=0\n",
      "note_off channel=2 note=66 velocity=0 time=0\n",
      "note_on channel=0 note=76 velocity=105 time=0.00104166666667\n",
      "note_on channel=2 note=57 velocity=75 time=0\n",
      "note_on channel=2 note=61 velocity=75 time=0\n",
      "note_on channel=2 note=64 velocity=75 time=0\n",
      "note_off channel=0 note=76 velocity=0 time=0.248958333333\n",
      "note_on channel=0 note=73 velocity=80 time=0.00104166666667\n",
      "note_off channel=0 note=73 velocity=0 time=0.248958333333\n",
      "note_on channel=0 note=69 velocity=80 time=0.00104166666667\n",
      "note_off channel=0 note=69 velocity=0 time=0.248958333333\n",
      "note_on channel=0 note=74 velocity=95 time=0.00104166666667\n",
      "note_off channel=0 note=74 velocity=0 time=0.248958333333\n",
      "note_on channel=0 note=76 velocity=80 time=0.00104166666667\n",
      "note_off channel=0 note=76 velocity=0 time=0.248958333333\n",
      "note_on channel=0 note=78 velocity=80 time=0.00104166666667\n",
      "note_off channel=0 note=78 velocity=0 time=0.248958333333\n",
      "note_off channel=2 note=57 velocity=0 time=0\n",
      "note_off channel=2 note=61 velocity=0 time=0\n",
      "note_off channel=2 note=64 velocity=0 time=0\n",
      "note_on channel=0 note=76 velocity=105 time=0.00104166666667\n",
      "note_on channel=2 note=57 velocity=75 time=0\n",
      "note_on channel=2 note=61 velocity=75 time=0\n",
      "note_on channel=2 note=64 velocity=75 time=0\n",
      "note_off channel=0 note=76 velocity=0 time=0.248958333333\n",
      "note_on channel=0 note=73 velocity=80 time=0.00104166666667\n",
      "note_off channel=0 note=73 velocity=0 time=0.248958333333\n",
      "note_on channel=0 note=69 velocity=80 time=0.00104166666667\n",
      "note_off channel=0 note=69 velocity=0 time=0.248958333333\n",
      "note_on channel=0 note=74 velocity=95 time=0.00104166666667\n",
      "note_off channel=0 note=74 velocity=0 time=0.498958333333\n",
      "note_on channel=0 note=78 velocity=80 time=0.00104166666667\n",
      "note_off channel=0 note=78 velocity=0 time=0.248958333333\n",
      "note_off channel=2 note=57 velocity=0 time=0\n",
      "note_off channel=2 note=61 velocity=0 time=0\n",
      "note_off channel=2 note=64 velocity=0 time=0\n",
      "note_on channel=0 note=78 velocity=105 time=0.00104166666667\n",
      "note_on channel=2 note=50 velocity=75 time=0\n",
      "note_on channel=2 note=54 velocity=75 time=0\n",
      "note_on channel=2 note=57 velocity=75 time=0\n",
      "note_off channel=0 note=78 velocity=0 time=0.248958333333\n",
      "note_on channel=0 note=81 velocity=80 time=0.00104166666667\n",
      "note_off channel=0 note=81 velocity=0 time=0.248958333333\n",
      "note_on channel=0 note=78 velocity=80 time=0.00104166666667\n",
      "note_off channel=0 note=78 velocity=0 time=0.248958333333\n",
      "note_on channel=0 note=76 velocity=95 time=0.00104166666667\n",
      "note_off channel=0 note=76 velocity=0 time=0.248958333333\n",
      "note_on channel=0 note=74 velocity=80 time=0.00104166666667\n",
      "note_off channel=0 note=74 velocity=0 time=0.248958333333\n",
      "note_on channel=0 note=73 velocity=80 time=0.00104166666667\n",
      "note_off channel=0 note=73 velocity=0 time=0.248958333333\n",
      "note_off channel=2 note=50 velocity=0 time=0\n",
      "note_off channel=2 note=54 velocity=0 time=0\n",
      "note_off channel=2 note=57 velocity=0 time=0\n",
      "note_on channel=0 note=71 velocity=105 time=0.00104166666667\n",
      "note_on channel=2 note=59 velocity=75 time=0\n",
      "note_on channel=2 note=62 velocity=75 time=0\n",
      "note_on channel=2 note=66 velocity=75 time=0\n",
      "note_off channel=0 note=71 velocity=0 time=0.248958333333\n",
      "note_on channel=0 note=73 velocity=80 time=0.00104166666667\n",
      "note_off channel=0 note=73 velocity=0 time=0.248958333333\n",
      "note_on channel=0 note=71 velocity=80 time=0.00104166666667\n",
      "note_off channel=0 note=71 velocity=0 time=0.248958333333\n",
      "note_on channel=0 note=74 velocity=95 time=0.00104166666667\n",
      "note_off channel=0 note=74 velocity=0 time=0.498958333333\n",
      "note_on channel=0 note=78 velocity=80 time=0.00104166666667\n",
      "note_off channel=0 note=78 velocity=0 time=0.248958333333\n",
      "note_off channel=2 note=59 velocity=0 time=0\n",
      "note_off channel=2 note=62 velocity=0 time=0\n",
      "note_off channel=2 note=66 velocity=0 time=0\n",
      "note_on channel=0 note=76 velocity=105 time=0.00104166666667\n",
      "note_on channel=2 note=57 velocity=75 time=0\n",
      "note_on channel=2 note=61 velocity=75 time=0\n",
      "note_on channel=2 note=64 velocity=75 time=0\n",
      "note_off channel=0 note=76 velocity=0 time=0.248958333333\n",
      "note_on channel=0 note=73 velocity=80 time=0.00104166666667\n",
      "note_off channel=0 note=73 velocity=0 time=0.248958333333\n",
      "note_on channel=0 note=69 velocity=80 time=0.00104166666667\n",
      "note_off channel=0 note=69 velocity=0 time=0.248958333333\n",
      "note_on channel=0 note=81 velocity=95 time=0.00104166666667\n",
      "note_off channel=0 note=81 velocity=0 time=0.248958333333\n",
      "note_on channel=0 note=73 velocity=80 time=0.00104166666667\n",
      "note_off channel=0 note=73 velocity=0 time=0.248958333333\n",
      "note_on channel=0 note=69 velocity=80 time=0.00104166666667\n",
      "note_off channel=0 note=69 velocity=0 time=0.248958333333\n",
      "note_off channel=2 note=57 velocity=0 time=0\n",
      "note_off channel=2 note=61 velocity=0 time=0\n",
      "note_off channel=2 note=64 velocity=0 time=0\n",
      "note_on channel=0 note=76 velocity=105 time=0.00104166666667\n",
      "note_on channel=2 note=57 velocity=75 time=0\n",
      "note_on channel=2 note=61 velocity=75 time=0\n",
      "note_on channel=2 note=64 velocity=75 time=0\n",
      "note_off channel=0 note=76 velocity=0 time=0.248958333333\n",
      "note_on channel=0 note=73 velocity=80 time=0.00104166666667\n",
      "note_off channel=0 note=73 velocity=0 time=0.248958333333\n",
      "note_on channel=0 note=69 velocity=80 time=0.00104166666667\n",
      "note_off channel=0 note=69 velocity=0 time=0.248958333333\n",
      "note_on channel=0 note=74 velocity=95 time=0.00104166666667\n",
      "note_off channel=0 note=74 velocity=0 time=0.498958333333\n",
      "note_on channel=0 note=78 velocity=80 time=0.00104166666667\n",
      "note_off channel=0 note=78 velocity=0 time=0.248958333333\n",
      "note_off channel=2 note=57 velocity=0 time=0\n",
      "note_off channel=2 note=61 velocity=0 time=0\n",
      "note_off channel=2 note=64 velocity=0 time=0\n",
      "note_on channel=0 note=76 velocity=105 time=0.00104166666667\n",
      "note_on channel=2 note=57 velocity=75 time=0\n",
      "note_on channel=2 note=61 velocity=75 time=0\n",
      "note_on channel=2 note=64 velocity=75 time=0\n",
      "note_off channel=0 note=76 velocity=0 time=0.248958333333\n",
      "note_on channel=0 note=73 velocity=80 time=0.00104166666667\n",
      "note_off channel=0 note=73 velocity=0 time=0.248958333333\n",
      "note_on channel=0 note=69 velocity=80 time=0.00104166666667\n",
      "note_off channel=0 note=69 velocity=0 time=0.248958333333\n",
      "note_on channel=0 note=81 velocity=95 time=0.00104166666667\n",
      "note_off channel=0 note=81 velocity=0 time=0.248958333333\n",
      "note_on channel=0 note=73 velocity=80 time=0.00104166666667\n",
      "note_off channel=0 note=73 velocity=0 time=0.248958333333\n",
      "note_on channel=0 note=69 velocity=80 time=0.00104166666667\n",
      "note_off channel=0 note=69 velocity=0 time=0.248958333333\n",
      "note_off channel=2 note=57 velocity=0 time=0\n",
      "note_off channel=2 note=61 velocity=0 time=0\n",
      "note_off channel=2 note=64 velocity=0 time=0\n",
      "note_on channel=0 note=71 velocity=105 time=0.00104166666667\n",
      "note_on channel=2 note=59 velocity=75 time=0\n",
      "note_on channel=2 note=62 velocity=75 time=0\n",
      "note_on channel=2 note=66 velocity=75 time=0\n",
      "note_off channel=0 note=71 velocity=0 time=0.248958333333\n",
      "note_on channel=0 note=73 velocity=80 time=0.00104166666667\n",
      "note_off channel=0 note=73 velocity=0 time=0.248958333333\n",
      "note_on channel=0 note=71 velocity=80 time=0.00104166666667\n",
      "note_off channel=0 note=71 velocity=0 time=0.248958333333\n",
      "note_on channel=0 note=74 velocity=95 time=0.00104166666667\n",
      "note_off channel=0 note=74 velocity=0 time=0.498958333333\n",
      "note_on channel=0 note=78 velocity=80 time=0.00104166666667\n",
      "note_off channel=0 note=78 velocity=0 time=0.248958333333\n",
      "note_off channel=2 note=59 velocity=0 time=0\n",
      "note_off channel=2 note=62 velocity=0 time=0\n",
      "note_off channel=2 note=66 velocity=0 time=0\n",
      "note_on channel=0 note=76 velocity=105 time=0.00104166666667\n",
      "note_on channel=2 note=57 velocity=75 time=0\n",
      "note_on channel=2 note=61 velocity=75 time=0\n",
      "note_on channel=2 note=64 velocity=75 time=0\n",
      "note_off channel=0 note=76 velocity=0 time=0.248958333333\n",
      "note_on channel=0 note=73 velocity=80 time=0.00104166666667\n",
      "note_off channel=0 note=73 velocity=0 time=0.248958333333\n",
      "note_on channel=0 note=69 velocity=80 time=0.00104166666667\n",
      "note_off channel=0 note=69 velocity=0 time=0.248958333333\n",
      "note_on channel=0 note=81 velocity=95 time=0.00104166666667\n",
      "note_off channel=0 note=81 velocity=0 time=0.248958333333\n",
      "note_on channel=0 note=73 velocity=80 time=0.00104166666667\n",
      "note_off channel=0 note=73 velocity=0 time=0.248958333333\n",
      "note_on channel=0 note=69 velocity=80 time=0.00104166666667\n",
      "note_off channel=0 note=69 velocity=0 time=0.248958333333\n",
      "note_off channel=2 note=57 velocity=0 time=0\n",
      "note_off channel=2 note=61 velocity=0 time=0\n",
      "note_off channel=2 note=64 velocity=0 time=0\n",
      "note_on channel=0 note=76 velocity=105 time=0.00104166666667\n",
      "note_on channel=2 note=57 velocity=75 time=0\n",
      "note_on channel=2 note=61 velocity=75 time=0\n",
      "note_on channel=2 note=64 velocity=75 time=0\n",
      "note_off channel=0 note=76 velocity=0 time=0.248958333333\n",
      "note_on channel=0 note=73 velocity=80 time=0.00104166666667\n",
      "note_off channel=0 note=73 velocity=0 time=0.248958333333\n",
      "note_on channel=0 note=69 velocity=80 time=0.00104166666667\n",
      "note_off channel=0 note=69 velocity=0 time=0.248958333333\n",
      "note_on channel=0 note=74 velocity=95 time=0.00104166666667\n",
      "note_off channel=0 note=74 velocity=0 time=0.498958333333\n",
      "note_on channel=0 note=78 velocity=80 time=0.00104166666667\n",
      "note_off channel=0 note=78 velocity=0 time=0.248958333333\n",
      "note_off channel=2 note=57 velocity=0 time=0\n",
      "note_off channel=2 note=61 velocity=0 time=0\n",
      "note_off channel=2 note=64 velocity=0 time=0\n",
      "note_on channel=0 note=78 velocity=105 time=0.00104166666667\n",
      "note_on channel=2 note=50 velocity=75 time=0\n",
      "note_on channel=2 note=54 velocity=75 time=0\n",
      "note_on channel=2 note=57 velocity=75 time=0\n",
      "note_off channel=0 note=78 velocity=0 time=0.248958333333\n",
      "note_on channel=0 note=81 velocity=80 time=0.00104166666667\n",
      "note_off channel=0 note=81 velocity=0 time=0.248958333333\n",
      "note_on channel=0 note=78 velocity=80 time=0.00104166666667\n",
      "note_off channel=0 note=78 velocity=0 time=0.248958333333\n",
      "note_on channel=0 note=76 velocity=95 time=0.00104166666667\n",
      "note_off channel=0 note=76 velocity=0 time=0.248958333333\n",
      "note_on channel=0 note=74 velocity=80 time=0.00104166666667\n",
      "note_off channel=0 note=74 velocity=0 time=0.248958333333\n",
      "note_on channel=0 note=73 velocity=80 time=0.00104166666667\n",
      "note_off channel=0 note=73 velocity=0 time=0.248958333333\n",
      "note_off channel=2 note=50 velocity=0 time=0\n",
      "note_off channel=2 note=54 velocity=0 time=0\n",
      "note_off channel=2 note=57 velocity=0 time=0\n",
      "note_on channel=0 note=71 velocity=105 time=0.00104166666667\n",
      "note_on channel=2 note=59 velocity=75 time=0\n",
      "note_on channel=2 note=62 velocity=75 time=0\n",
      "note_on channel=2 note=66 velocity=75 time=0\n",
      "note_off channel=0 note=71 velocity=0 time=0.248958333333\n",
      "note_on channel=0 note=73 velocity=80 time=0.00104166666667\n",
      "note_off channel=0 note=73 velocity=0 time=0.248958333333\n",
      "note_on channel=0 note=71 velocity=80 time=0.00104166666667\n",
      "note_off channel=0 note=71 velocity=0 time=0.248958333333\n",
      "note_on channel=0 note=74 velocity=95 time=0.00104166666667\n",
      "note_off channel=0 note=74 velocity=0 time=0.498958333333\n",
      "note_on channel=0 note=78 velocity=80 time=0.00104166666667\n",
      "note_off channel=0 note=78 velocity=0 time=0.248958333333\n",
      "note_off channel=2 note=59 velocity=0 time=0\n",
      "note_off channel=2 note=62 velocity=0 time=0\n",
      "note_off channel=2 note=66 velocity=0 time=0\n",
      "<meta message end_of_track time=0.0270833333333>\n"
     ]
    }
   ],
   "source": [
    "for x in mid2:\n",
    "    print x"
   ]
  },
  {
   "cell_type": "code",
   "execution_count": 37,
   "metadata": {
    "collapsed": false
   },
   "outputs": [
    {
     "name": "stdout",
     "output_type": "stream",
     "text": [
      "<midi track u\"Duchess of Hamilton's Rant\" 5 messages>\n",
      "<midi track u\"Duchess of Hamilton's Rant\" 268 messages>\n",
      "<midi track u'' 147 messages>\n"
     ]
    }
   ],
   "source": [
    "for x in mid2.tracks:\n",
    "    print x"
   ]
  },
  {
   "cell_type": "code",
   "execution_count": 18,
   "metadata": {
    "collapsed": false
   },
   "outputs": [
    {
     "data": {
      "text/plain": [
       "(180, 88)"
      ]
     },
     "execution_count": 18,
     "metadata": {},
     "output_type": "execute_result"
    }
   ],
   "source": [
    "mid.piano_roll.shape"
   ]
  },
  {
   "cell_type": "code",
   "execution_count": 22,
   "metadata": {
    "collapsed": false
   },
   "outputs": [
    {
     "data": {
      "text/plain": [
       "180"
      ]
     },
     "execution_count": 22,
     "metadata": {},
     "output_type": "execute_result"
    }
   ],
   "source": [
    "\n",
    "dt = 0.2\n",
    "\n",
    "int(numpy.ceil(max(zip(*mid.notes)[2]) / dt)) "
   ]
  },
  {
   "cell_type": "code",
   "execution_count": 28,
   "metadata": {
    "collapsed": false
   },
   "outputs": [],
   "source": [
    "s = mid.piano_roll.T"
   ]
  },
  {
   "cell_type": "code",
   "execution_count": null,
   "metadata": {
    "collapsed": true
   },
   "outputs": [],
   "source": []
  },
  {
   "cell_type": "code",
   "execution_count": 31,
   "metadata": {
    "collapsed": false
   },
   "outputs": [
    {
     "data": {
      "text/plain": [
       "array([ 0.,  0.,  0.,  0.,  0.,  0.,  0.,  0.,  0.,  0.,  0.,  0.,  0.,\n",
       "        0.,  0.,  0.,  0.,  0.,  0.,  0.,  0.,  0.,  0.,  0.,  0.,  0.,\n",
       "        0.,  0.,  0.,  0.,  0.,  0.,  0.,  0.,  0.,  0.,  0.,  0.,  0.,\n",
       "        0.,  0.,  0.,  0.,  0.,  0.,  0.,  0.,  0.,  0.,  0.,  0.,  0.,\n",
       "        0.,  0.,  0.,  0.,  0.,  0.,  0.,  0.,  0.,  0.,  0.,  0.,  0.,\n",
       "        0.,  0.,  0.,  0.,  0.,  0.,  0.,  0.,  0.,  0.,  0.,  0.,  0.,\n",
       "        0.,  0.,  0.,  0.,  0.,  0.,  0.,  0.,  0.,  0.,  0.,  0.,  0.,\n",
       "        0.,  0.,  0.,  0.,  0.,  0.,  0.,  0.,  0.,  0.,  0.,  0.,  0.,\n",
       "        0.,  0.,  0.,  0.,  0.,  0.,  0.,  0.,  0.,  0.,  0.,  0.,  0.,\n",
       "        0.,  0.,  0.,  0.,  0.,  0.,  0.,  0.,  0.,  0.,  0.,  0.,  0.,\n",
       "        0.,  0.,  0.,  0.,  0.,  0.,  0.,  0.,  0.,  0.,  0.,  0.,  0.,\n",
       "        0.,  0.,  0.,  0.,  0.,  0.,  0.,  0.,  0.,  0.,  0.,  0.,  0.,\n",
       "        0.,  0.,  0.,  0.,  0.,  0.,  0.,  0.,  0.,  0.,  0.,  0.,  0.,\n",
       "        0.,  0.,  0.,  0.,  0.,  0.,  0.,  0.,  0.,  0.,  0.])"
      ]
     },
     "execution_count": 31,
     "metadata": {},
     "output_type": "execute_result"
    }
   ],
   "source": [
    "s[10]"
   ]
  },
  {
   "cell_type": "code",
   "execution_count": null,
   "metadata": {
    "collapsed": true
   },
   "outputs": [],
   "source": []
  }
 ],
 "metadata": {
  "anaconda-cloud": {},
  "kernelspec": {
   "display_name": "Python [conda root]",
   "language": "python",
   "name": "conda-root-py"
  },
  "language_info": {
   "codemirror_mode": {
    "name": "ipython",
    "version": 2
   },
   "file_extension": ".py",
   "mimetype": "text/x-python",
   "name": "python",
   "nbconvert_exporter": "python",
   "pygments_lexer": "ipython2",
   "version": "2.7.12"
  }
 },
 "nbformat": 4,
 "nbformat_minor": 1
}
